<?xml version="1.0" encoding="UTF-8"?>
<svg id="Capa_1" data-name="Capa 1" xmlns="http://www.w3.org/2000/svg" viewBox="0 0 1355.29 294.46">
  <defs>
    <style>
      .cls-1, .cls-2 {
        fill: #fff;
      }

      .cls-2 {
        font-family: ErasITC-Bold, 'Eras Bold ITC';
        font-size: 25.91px;
        font-weight: 700;
        letter-spacing: 1.1em;
      }
    </style>
  </defs>
  <text class="cls-2" transform="translate(204.9 287.98)"><tspan x="0" y="0">DIRECCIÓN VOCACIONAL</tspan></text>
  <g>
    <path class="cls-1" d="M118.07,193.45c-.78,3.83-1.73,9.17-2.83,16.03-1.11,6.85-1.86,12.16-2.25,15.93-13.94,2.08-26.39,3.13-37.34,3.13s-20.38-1.32-29.47-3.96c-9.09-2.64-17.43-6.97-25.02-13-7.59-6.03-13.02-13.11-16.27-21.26-3.26-8.14-4.89-17.26-4.89-27.37,0-11.79,2.2-22.4,6.6-31.81,4.4-9.41,10.72-17.27,18.96-23.55,8.24-6.29,17.28-10.78,27.12-13.49,9.84-2.7,20-4.06,30.49-4.06,9.64,0,21.57,1.24,35.77,3.71l.2,8.21c.13,3.58.32,7.53.59,11.83l.68,11.14c-7.62-1.82-13.8-3.06-18.52-3.71-4.73-.65-9.11-.98-13.15-.98-8.8,0-16.71,1.76-23.75,5.28s-12.58,8.63-16.62,15.34c-4.04,6.71-6.06,14.14-6.06,22.28,0,7.43,1.69,13.8,5.08,19.11,3.39,5.31,7.97,9.42,13.73,12.31,5.77,2.9,12.88,4.35,21.36,4.35,4.63,0,9.66-.37,15.1-1.12,5.44-.75,12.27-2.2,20.48-4.35Z"/>
    <path class="cls-1" d="M329.37,226c3.24-31.67,5.18-66.52,5.83-104.58l-41.6,1.08.49-10.85c.26-5.8.45-12.15.59-19.06,18.5.13,40.06.2,64.68.2l24.13-.1h23.45l12.7-.1-.59,9.57c-.26,5.13-.44,9.38-.54,12.73-.1,3.36-.15,5.89-.15,7.6-13.93-.72-25.42-1.08-34.47-1.08h-6.84c-.98,11.51-1.74,22.14-2.26,31.9-.72,13.98-1.28,27.56-1.67,40.73-.39,13.17-.59,23.82-.59,31.95-10.68-.13-17.58-.2-20.71-.2-2.8,0-10.29.07-22.46.2Z"/>
    <path class="cls-1" d="M409.22,226l8.12-14.07,50.56-95.19,5.38-10.65c1.56-3.13,3.75-7.62,6.55-13.49,11.47.13,19.84.2,25.12.2,9.19,0,17.69-.06,25.51-.2l14.26,40.76,29.01,78.38,5.67,14.27c-11.29-.13-18.13-.2-20.55-.2-5.48,0-13.53.07-24.17.2-2.86-10.75-6.99-23.39-12.39-37.92h-49.2c-5.66,11.47-11.52,24.11-17.58,37.92-12.13-.13-19.57-.2-22.31-.2-4.96,0-12.95.07-23.97.2ZM484.89,159.64h30.36c-7.55-22.96-11.68-35.61-12.39-37.95-4.3,9.56-7.94,17.4-10.94,23.51l-7.03,14.44Z"/>
    <path class="cls-1" d="M590.03,226l1.94-25.02,2.52-48.87,1.07-34.6c.06-3.71.1-7.43.1-11.14,0-2.8-.03-7.39-.1-13.78,8.6.2,15.51.29,20.73.29s11.89-.15,20.63-.44c8.73-.29,16.13-.44,22.2-.44,8.73,0,15.2.55,19.41,1.66,4.2,1.11,8,2.85,11.39,5.23,3.39,2.38,6.19,5.16,8.41,8.36,2.22,3.19,3.88,6.83,4.99,10.9,1.11,4.07,1.66,8.23,1.66,12.46,0,8.73-2.12,16.71-6.35,23.95-4.24,7.23-10.2,12.64-17.88,16.22-7.69,3.58-16.32,5.37-25.9,5.37-3.52,0-7.59-.39-12.22-1.17-.52-3-1.5-7.46-2.93-13.39-1.43-5.93-2.61-10.33-3.52-13.19,2.87.59,5.86.88,8.99.88,6.58,0,11.48-1.58,14.71-4.74,3.23-3.16,4.84-7.02,4.84-11.58,0-2.21-.36-4.19-1.08-5.91-.72-1.73-1.86-3.14-3.42-4.25-1.56-1.11-3.29-1.82-5.18-2.15-1.89-.32-4.04-.49-6.45-.49s-4.79.07-7.33.2l-8.21.59c-.84,12.58-1.48,26.55-1.93,41.93-.84,28.02-1.26,44.83-1.26,50.43v12.71l-19.47-.2c-2.74,0-9.52.07-20.35.2Z"/>
    <path class="cls-1" d="M723.27,92.59c10.16.13,17.32.2,21.49.2,5.21,0,12.15-.06,20.81-.2l-2.91,41.54c-.58,7.82-1.02,15.15-1.31,21.99-.29,6.84-.44,11.57-.44,14.17,0,4.95.36,9.09,1.07,12.41.72,3.32,2.02,6.14,3.91,8.45,1.89,2.31,4.51,4.06,7.86,5.23,3.35,1.17,6.85,1.76,10.5,1.76,3.12,0,6.06-.43,8.79-1.28,2.15-.7,4.07-1.67,5.76-2.91,1.5-1.16,2.8-2.52,3.91-4.07,1.37-1.86,2.57-4.19,3.61-6.98,1.04-2.64,1.82-6.05,2.34-10.24.59-4.27,1.37-13.97,2.35-29.09.85-12.88,1.5-24.67,1.96-35.38.39-10.4.75-15.59,1.07-15.59h43.1l-4.75,69.39c-.06,1.3-.1,2.38-.1,3.22-.26,13.55-1.09,23.11-2.49,28.69-1.4,5.57-3.73,10.41-6.99,14.51s-8.02,7.8-14.27,11.09c-6.26,3.29-13.36,5.62-21.31,6.99-7.95,1.37-16,2.05-24.15,2.05-7.3,0-14.34-.52-21.12-1.56-6.26-1.04-11.9-2.56-16.92-4.54-5.02-1.99-9.39-4.32-13.1-6.99-3.39-2.48-6-5-7.82-7.57-1.83-2.57-3.26-5.65-4.3-9.24-1.17-4.04-1.76-8.37-1.76-13,0-1.56.06-3.92.2-7.09.13-3.16.43-7.7.88-13.63l1.28-15.64c.33-4.1.69-10.13,1.08-18.08l1.77-38.61Z"/>
  </g>
  <ellipse class="cls-1" cx="1321.57" cy="206.76" rx="21.39" ry="34.79" transform="translate(712.95 1397.93) rotate(-71.83)"/>
  <path class="cls-1" d="M283.73,211.73l-29.01-78.38-13.94-39.83L210.53,0l-16.89,5.28s-.02-.05-.03-.07c-8.84-.13-19.63,3.04-25.78,10.32-10.92,12.9-9.32,32.2,3.58,43.12,10.11,8.56,24.16,9.42,35.02,3.18l9.36,30.97c-.28,0-.55,0-.83,0-5.28,0-13.65-.06-25.12-.2-2.8,5.86-4.99,10.36-6.55,13.49l-5.38,10.65-50.56,95.19-8.12,14.07c11.02-.13,19.01-.2,23.97-.2,2.74,0,10.17.07,22.31.2,6.05-13.81,11.91-26.45,17.58-37.92h49.2c5.4,14.53,9.53,27.17,12.39,37.92,10.63-.13,18.69-.2,24.17-.2,2.41,0,9.26.07,20.55.2l-5.67-14.27ZM194.91,159.64l7.03-14.44c2.99-6.11,6.64-13.95,10.94-23.51.71,2.34,4.85,14.99,12.39,37.95h-30.36Z"/>
  <path class="cls-1" d="M920.76,127.97l2.05-30.86c-6.67-1.48-13.31-2.92-19.93-4.33-6.76,0-14.5-.07-23.22-.2,0,11.14-.34,25.46-1.03,42.96-.69,17.49-1.72,35.1-3.09,52.83-.72,9.71-1.9,22.25-3.53,37.63,15.77-.13,34.14-.2,55.12-.2,15.51,0,31.83.07,48.97.2l2.15-29.52c-8.8.46-21.77.68-38.91.68-3.39,0-10.69-.1-21.9-.29l.39-13.59,2.94-55.32Z"/>
  <g>
    <path class="cls-1" d="M984.69,111.65l-.49,10.85,38.88-1c-12.87-3.41-25.67-6.7-38.39-9.86,0,0,0,0,0,.01Z"/>
    <path class="cls-1" d="M1109.12,114.9c.1-3.36.28-7.6.54-12.73l.59-9.57-12.7.1h-23.45l-24.13.1c-19.04,0-36.24-.04-51.61-.12,40.78,9.35,77.87,18.87,110.64,27.91.02-1.52.06-3.4.13-5.68Z"/>
    <path class="cls-1" d="M1019.97,226c12.18-.13,19.66-.2,22.46-.2,3.13,0,10.03.07,20.71.2,0-8.13.2-18.78.59-31.95.39-13.17.95-26.75,1.67-40.73.34-6.25.77-12.86,1.29-19.83-13.71-3.91-27.35-7.67-40.91-11.29-.66,37.75-2.6,72.34-5.81,103.79Z"/>
    <g>
      <path class="cls-1" d="M1183.83,142.51c6.43,2,12.53,3.94,18.3,5.79-5.19-15.82-8.08-24.7-8.67-26.62-3.69,8.22-6.9,15.16-9.63,20.83Z"/>
      <path class="cls-1" d="M1193.46,121.68c.59,1.92,3.48,10.8,8.67,26.62,18.22,5.86,33.07,10.92,44.2,14.83l-11.02-29.78-14.26-40.76c-7.82.13-16.32.2-25.51.2-5.28,0-13.65-.06-25.12-.2-2.8,5.86-4.99,10.36-6.55,13.49l-5.38,10.65-8.28,15.6c12.02,3.54,23.24,6.95,33.61,10.18,2.73-5.67,5.94-12.61,9.63-20.83Z"/>
      <path class="cls-1" d="M1259.01,197.39c-40.62-15.5-80.98-29.56-120.88-42.3l-30.19,56.84-8.12,14.07c11.02-.13,19.01-.2,23.97-.2,2.74,0,10.17.07,22.31.2,6.05-13.81,11.91-26.45,17.58-37.92h49.2c5.4,14.53,9.53,27.17,12.39,37.92,10.63-.13,18.69-.2,24.17-.2,2.41,0,9.26.07,20.55.2l-5.67-14.27-5.31-14.34Z"/>
    </g>
  </g>
</svg>