<?xml version="1.0" encoding="UTF-8"?>
<svg id="Capa_1" data-name="Capa 1" xmlns="http://www.w3.org/2000/svg" viewBox="0 0 1355.29 288.31">
  <defs>
    <style>
      .cls-1 {
        fill: #fff;
      }
    </style>
  </defs>
  <g>
    <g>
      <path class="cls-1" d="M206.19,287.98c.19-1.92.31-3.46.38-4.62.1-1.72.2-3.95.31-6.68.08-2.09.11-3.59.11-4.49v-1.48c.99.03,1.84.04,2.56.04s1.6-.02,2.72-.06c1.12-.04,2.18-.06,3.16-.06,1.13,0,2.12.07,2.97.2.85.13,1.65.41,2.38.83s1.36.97,1.85,1.66c.5.68.88,1.48,1.14,2.4s.39,1.86.39,2.83-.1,1.87-.3,2.75c-.2.88-.48,1.68-.85,2.38-.36.71-.79,1.32-1.27,1.83-.49.51-1.04.95-1.66,1.31-.46.27-.93.48-1.4.63-.47.15-1.12.27-1.94.37-.91.1-1.94.15-3.1.15l-5.11-.04c-.48,0-1.26.01-2.34.04ZM211.66,284.17c.46.04.95.06,1.45.06.86,0,1.63-.08,2.3-.23.67-.15,1.27-.48,1.78-.97.51-.5.89-1.14,1.13-1.92s.37-1.58.37-2.4c0-1-.18-1.85-.54-2.54s-.85-1.17-1.45-1.44c-.6-.27-1.42-.4-2.46-.4-.61,0-1.32.03-2.15.08l-.43,9.76Z"/>
      <path class="cls-1" d="M254.77,287.98c.49-6.77.73-11.99.73-15.64v-1.63c1.46.02,2.45.03,2.95.03.23,0,1.14,0,2.72-.03-.15,1.9-.28,3.7-.37,5.39-.12,2.36-.2,4.57-.25,6.62-.05,2.05-.08,3.81-.08,5.26l-2.59-.03c-.51,0-1.54,0-3.11.03Z"/>
      <path class="cls-1" d="M292.05,287.98c.16-1.48.29-2.82.38-4.01.09-1.19.17-2.57.24-4.14.07-1.57.12-3.22.15-4.97.03-1.74.05-3.13.05-4.16,1.05.03,1.91.04,2.56.04s1.5-.02,2.47-.06c.97-.04,1.91-.06,2.83-.06,1.08,0,2.04.04,2.88.13.63.06,1.21.18,1.73.37.52.19.96.41,1.31.68s.65.56.89.89c.24.33.42.71.55,1.16.13.44.2.92.2,1.42,0,.57-.07,1.09-.22,1.59s-.37.96-.68,1.39c-.31.43-.7.81-1.16,1.13s-1.12.64-1.97.97l.66,1.61c.19.45.38.9.59,1.37l1.7,3.71c.08.16.21.48.4.95-1.39-.02-2.33-.03-2.81-.03-.61,0-1.6,0-2.98.03-.14-.44-.38-1.25-.73-2.44-.14-.5-.27-.88-.37-1.15-.2-.6-.5-1.44-.9-2.52l-1.3-3.58c.46.08.9.13,1.34.13.62,0,1.17-.09,1.68-.28s.88-.47,1.14-.86.39-.8.39-1.23c0-.36-.1-.68-.29-.96-.19-.27-.5-.48-.92-.61-.42-.13-1.06-.2-1.93-.2-.3,0-.6,0-.92.02-.32.01-.69.02-1.11.03-.11,1.73-.2,3.84-.29,6.33-.08,2.49-.14,4.93-.16,7.33-1.41-.02-2.33-.03-2.75-.03-.49,0-1.37,0-2.65.03Z"/>
      <path class="cls-1" d="M338.73,287.98c.21-2.18.37-4,.46-5.47s.19-3.42.29-5.85c.1-2.43.15-4.05.15-4.84v-1.11c1.98.02,4.39.03,7.21.03,2.61,0,4.9,0,6.9-.03l-.03.42c0,.1-.03.47-.06,1.1l-.08,1.37c-.02.29-.03.59-.03.9-1.63-.07-2.99-.1-4.1-.1-1.21,0-2.04,0-2.46,0-.43,0-1.09.02-1.99.06l-.15,2.91c1,.03,2.16.04,3.48.04.47,0,1.73-.03,3.77-.09-.08,1.08-.16,2.37-.24,3.86-1.46-.02-2.58-.03-3.36-.03-1.16,0-2.47.03-3.91.09l-.15,3.07h1.45c.43,0,1.32-.01,2.67-.04l2.62-.06c.39,0,1.04-.04,1.95-.1-.1,1.25-.19,2.54-.25,3.87-2.06-.02-4.31-.03-6.77-.03h-5.57s-1.8.03-1.8.03Z"/>
      <path class="cls-1" d="M399.29,283.76c-.1.5-.22,1.19-.37,2.08-.14.89-.24,1.58-.29,2.06-1.81.27-3.42.41-4.83.41s-2.64-.17-3.81-.51c-1.18-.34-2.26-.9-3.24-1.68s-1.69-1.7-2.11-2.75c-.42-1.05-.63-2.24-.63-3.54,0-1.53.28-2.9.85-4.12s1.39-2.24,2.45-3.05c1.07-.81,2.24-1.4,3.51-1.75,1.27-.35,2.59-.53,3.95-.53,1.25,0,2.79.16,4.63.48l.03,1.06c.02.46.04.97.08,1.53l.09,1.44c-.99-.24-1.79-.4-2.4-.48-.61-.08-1.18-.13-1.7-.13-1.14,0-2.16.23-3.07.68-.91.46-1.63,1.12-2.15,1.99-.52.87-.78,1.83-.78,2.88,0,.96.22,1.79.66,2.47.44.69,1.03,1.22,1.78,1.59.75.38,1.67.56,2.77.56.6,0,1.25-.05,1.96-.15.7-.1,1.59-.29,2.65-.56Z"/>
      <path class="cls-1" d="M445.17,283.76c-.1.5-.22,1.19-.37,2.08-.14.89-.24,1.58-.29,2.06-1.81.27-3.42.41-4.83.41s-2.64-.17-3.81-.51c-1.18-.34-2.26-.9-3.24-1.68s-1.69-1.7-2.11-2.75c-.42-1.05-.63-2.24-.63-3.54,0-1.53.28-2.9.85-4.12s1.39-2.24,2.45-3.05c1.07-.81,2.24-1.4,3.51-1.75,1.27-.35,2.59-.53,3.95-.53,1.25,0,2.79.16,4.63.48l.03,1.06c.02.46.04.97.08,1.53l.09,1.44c-.99-.24-1.79-.4-2.4-.48-.61-.08-1.18-.13-1.7-.13-1.14,0-2.16.23-3.07.68-.91.46-1.63,1.12-2.15,1.99-.52.87-.78,1.83-.78,2.88,0,.96.22,1.79.66,2.47.44.69,1.03,1.22,1.78,1.59.75.38,1.67.56,2.77.56.6,0,1.25-.05,1.96-.15.7-.1,1.59-.29,2.65-.56Z"/>
      <path class="cls-1" d="M476.14,287.98c.49-6.77.73-11.99.73-15.64v-1.63c1.46.02,2.45.03,2.95.03.23,0,1.14,0,2.72-.03-.15,1.9-.28,3.7-.37,5.39-.12,2.36-.2,4.57-.25,6.62-.05,2.05-.08,3.81-.08,5.26l-2.59-.03c-.51,0-1.54,0-3.11.03Z"/>
      <path class="cls-1" d="M523.91,270.38c1.35,0,2.65.18,3.9.54,1.25.36,2.34.94,3.28,1.74s1.64,1.71,2.1,2.75c.46,1.04.7,2.23.7,3.58,0,1.42-.26,2.72-.77,3.9-.51,1.18-1.25,2.19-2.21,3.02-.96.83-2.11,1.43-3.44,1.82s-2.72.58-4.16.58-2.79-.19-4.1-.56c-1.31-.38-2.44-.98-3.41-1.82-.97-.84-1.65-1.77-2.06-2.8-.41-1.03-.61-2.17-.61-3.43,0-1.85.43-3.47,1.28-4.87.86-1.4,2.13-2.49,3.81-3.27,1.68-.78,3.58-1.18,5.69-1.18ZM523.68,274.19c-.97,0-1.85.24-2.63.71-.78.48-1.39,1.14-1.81,1.99-.42.85-.63,1.76-.63,2.73,0,.89.19,1.71.58,2.46s.97,1.32,1.75,1.74c.78.42,1.62.63,2.49.63.94,0,1.79-.23,2.58-.7.78-.47,1.38-1.13,1.78-1.97.41-.85.61-1.74.61-2.66s-.19-1.74-.57-2.5c-.38-.76-.94-1.36-1.67-1.78s-1.56-.63-2.48-.63ZM521.87,269.1l.47-1.05c.12-.24.25-.54.39-.87l.39-.89c.86.02,1.7.03,2.52.03.68,0,1.54,0,2.56-.03l-1.1,1.23c-.08.09-.27.32-.57.67-.3.35-.55.66-.77.91-.81-.02-1.48-.02-2-.02-.4,0-1.03,0-1.89.02Z"/>
      <path class="cls-1" d="M564.42,287.98l.25-2.66.49-9.01.14-3.63v-1.97c1.31.02,2.47.03,3.47.03.72,0,1.73,0,3.03-.03l5.4,9.82.74,1.44c.1-1.42.19-3.41.29-5.96.1-2.56.15-4.32.15-5.3,1.04.02,1.87.03,2.49.03.29,0,1.11,0,2.48-.03l-.3,3.77-.57,10.48-.08,3.02c-1.1-.02-2.12-.03-3.08-.03-.79,0-1.89,0-3.29.03-.44-.83-.76-1.43-.97-1.8l-2.12-3.61c-.7-1.18-1.34-2.31-1.93-3.39-.39-.68-.79-1.43-1.2-2.25l-.27,6-.13,5.05c-1.04-.02-1.84-.03-2.39-.03-.46,0-1.33,0-2.6.03Z"/>
      <path class="cls-1" d="M653.77,287.98l-.47-1.54-3.09-8.9-2.43-6.83c1.15.02,2.17.03,3.06.03.55,0,1.41,0,2.58-.03.19.75.35,1.32.46,1.71.15.51.44,1.42.86,2.75l1.86,5.99c.19.62.42,1.44.69,2.44l.58-1.46,4.41-9.67c.08-.18.16-.38.26-.61.1-.23.25-.61.46-1.15,1.22.02,2.21.03,2.95.03.46,0,1.38,0,2.76-.03-.86,1.6-1.83,3.48-2.92,5.62l-4.36,8.66c-.42.84-.89,1.84-1.42,3-1.42-.02-2.43-.03-3.04-.03-.57,0-1.63,0-3.2.03Z"/>
      <path class="cls-1" d="M707.66,270.38c1.35,0,2.65.18,3.9.54,1.25.36,2.34.94,3.28,1.74.94.8,1.64,1.71,2.1,2.75.46,1.04.7,2.23.7,3.58,0,1.42-.25,2.72-.77,3.9-.51,1.18-1.25,2.19-2.21,3.02s-2.11,1.43-3.44,1.82c-1.33.38-2.72.58-4.16.58s-2.79-.19-4.1-.56c-1.31-.38-2.44-.98-3.41-1.82-.97-.84-1.65-1.77-2.06-2.8-.41-1.03-.61-2.17-.61-3.43,0-1.85.43-3.47,1.28-4.87.86-1.4,2.13-2.49,3.81-3.27,1.68-.78,3.58-1.18,5.69-1.18ZM707.43,274.19c-.97,0-1.85.24-2.63.71-.78.48-1.39,1.14-1.81,1.99s-.63,1.76-.63,2.73c0,.89.19,1.71.58,2.46s.97,1.32,1.75,1.74c.78.42,1.62.63,2.49.63.94,0,1.79-.23,2.58-.7.78-.47,1.38-1.13,1.78-1.97.41-.85.61-1.74.61-2.66s-.19-1.74-.57-2.5c-.38-.76-.94-1.36-1.67-1.78-.73-.42-1.56-.63-2.48-.63Z"/>
      <path class="cls-1" d="M763.12,283.76c-.1.5-.22,1.19-.37,2.08-.14.89-.24,1.58-.29,2.06-1.81.27-3.42.41-4.83.41s-2.64-.17-3.82-.51-2.26-.9-3.24-1.68-1.68-1.7-2.11-2.75c-.42-1.05-.63-2.24-.63-3.54,0-1.53.28-2.9.85-4.12.57-1.22,1.39-2.24,2.46-3.05,1.07-.81,2.24-1.4,3.51-1.75,1.27-.35,2.59-.53,3.95-.53,1.25,0,2.79.16,4.63.48l.03,1.06c.02.46.04.97.08,1.53l.09,1.44c-.99-.24-1.79-.4-2.4-.48-.61-.08-1.18-.13-1.7-.13-1.14,0-2.16.23-3.07.68-.91.46-1.63,1.12-2.15,1.99-.52.87-.79,1.83-.79,2.88,0,.96.22,1.79.66,2.47s1.03,1.22,1.78,1.59c.75.38,1.67.56,2.76.56.6,0,1.25-.05,1.96-.15s1.59-.29,2.65-.56Z"/>
      <path class="cls-1" d="M791.77,287.98l1.05-1.82,6.55-12.32.7-1.38c.2-.4.49-.99.85-1.75,1.48.02,2.57.03,3.25.03,1.19,0,2.29,0,3.3-.03l1.85,5.28,3.76,10.15.73,1.85c-1.46-.02-2.35-.03-2.66-.03-.71,0-1.75,0-3.13.03-.37-1.39-.91-3.03-1.6-4.91h-6.37c-.73,1.48-1.49,3.12-2.28,4.91-1.57-.02-2.53-.03-2.89-.03-.64,0-1.68,0-3.1.03ZM801.57,279.39h3.93c-.98-2.97-1.51-4.61-1.6-4.91-.56,1.24-1.03,2.25-1.42,3.04l-.91,1.87Z"/>
      <path class="cls-1" d="M858.6,283.76c-.1.5-.22,1.19-.37,2.08-.14.89-.24,1.58-.29,2.06-1.81.27-3.42.41-4.83.41s-2.64-.17-3.82-.51-2.26-.9-3.24-1.68-1.68-1.7-2.11-2.75c-.42-1.05-.63-2.24-.63-3.54,0-1.53.28-2.9.85-4.12.57-1.22,1.39-2.24,2.46-3.05,1.07-.81,2.24-1.4,3.51-1.75,1.27-.35,2.59-.53,3.95-.53,1.25,0,2.79.16,4.63.48l.03,1.06c.02.46.04.97.08,1.53l.09,1.44c-.99-.24-1.79-.4-2.4-.48-.61-.08-1.18-.13-1.7-.13-1.14,0-2.16.23-3.07.68-.91.46-1.63,1.12-2.15,1.99-.52.87-.79,1.83-.79,2.88,0,.96.22,1.79.66,2.47s1.03,1.22,1.78,1.59c.75.38,1.67.56,2.76.56.6,0,1.25-.05,1.96-.15s1.59-.29,2.65-.56Z"/>
      <path class="cls-1" d="M889.57,287.98c.49-6.77.73-11.99.73-15.64v-1.63c1.46.02,2.45.03,2.95.03.23,0,1.14,0,2.72-.03-.15,1.9-.28,3.7-.37,5.39-.12,2.36-.2,4.57-.25,6.62-.05,2.05-.08,3.81-.08,5.26l-2.59-.03c-.51,0-1.54,0-3.11.03Z"/>
      <path class="cls-1" d="M937.34,270.38c1.35,0,2.65.18,3.9.54,1.25.36,2.34.94,3.28,1.74.94.8,1.64,1.71,2.1,2.75.46,1.04.7,2.23.7,3.58,0,1.42-.25,2.72-.77,3.9-.51,1.18-1.25,2.19-2.21,3.02s-2.11,1.43-3.44,1.82c-1.33.38-2.72.58-4.16.58s-2.79-.19-4.1-.56c-1.31-.38-2.44-.98-3.41-1.82-.97-.84-1.65-1.77-2.06-2.8-.41-1.03-.61-2.17-.61-3.43,0-1.85.43-3.47,1.28-4.87.86-1.4,2.13-2.49,3.81-3.27,1.68-.78,3.58-1.18,5.69-1.18ZM937.11,274.19c-.97,0-1.85.24-2.63.71-.78.48-1.39,1.14-1.81,1.99s-.63,1.76-.63,2.73c0,.89.19,1.71.58,2.46s.97,1.32,1.75,1.74c.78.42,1.62.63,2.49.63.94,0,1.79-.23,2.58-.7.78-.47,1.38-1.13,1.78-1.97.41-.85.61-1.74.61-2.66s-.19-1.74-.57-2.5c-.38-.76-.94-1.36-1.67-1.78-.73-.42-1.56-.63-2.48-.63Z"/>
      <path class="cls-1" d="M977.85,287.98l.25-2.66.49-9.01.14-3.63v-1.97c1.31.02,2.47.03,3.47.03.72,0,1.73,0,3.03-.03l5.4,9.82.74,1.44c.1-1.42.19-3.41.29-5.96.1-2.56.15-4.32.15-5.3,1.04.02,1.87.03,2.49.03.29,0,1.11,0,2.48-.03l-.3,3.77-.57,10.48-.08,3.02c-1.1-.02-2.12-.03-3.08-.03-.79,0-1.89,0-3.29.03-.44-.83-.76-1.43-.97-1.8l-2.12-3.61c-.7-1.18-1.34-2.31-1.93-3.39-.39-.68-.79-1.43-1.2-2.25l-.27,6-.13,5.05c-1.04-.02-1.84-.03-2.39-.03-.46,0-1.33,0-2.6.03Z"/>
      <path class="cls-1" d="M1025.35,287.98l1.05-1.82,6.55-12.32.7-1.38c.2-.4.49-.99.85-1.75,1.48.02,2.57.03,3.25.03,1.19,0,2.29,0,3.3-.03l1.85,5.28,3.76,10.15.73,1.85c-1.46-.02-2.35-.03-2.66-.03-.71,0-1.75,0-3.13.03-.37-1.39-.91-3.03-1.6-4.91h-6.37c-.73,1.48-1.49,3.12-2.28,4.91-1.57-.02-2.53-.03-2.89-.03-.64,0-1.68,0-3.1.03ZM1035.15,279.39h3.93c-.98-2.97-1.51-4.61-1.6-4.91-.56,1.24-1.03,2.25-1.42,3.04l-.91,1.87Z"/>
      <path class="cls-1" d="M1077.09,287.98c.21-1.99.36-3.61.46-4.87.18-2.29.31-4.57.4-6.84.09-2.27.13-4.12.13-5.56,1.15.02,2.16.03,3.05.03.6,0,1.46,0,2.58-.03l-.3,4.58-.38,7.16-.05,1.76c1.45.03,2.4.04,2.84.04,2.22,0,3.9-.03,5.04-.09l-.28,3.82c-2.22-.02-4.33-.03-6.34-.03-2.72,0-5.09,0-7.14.03Z"/>
    </g>
    <g>
      <path class="cls-1" d="M118.07,193.45c-.78,3.83-1.73,9.17-2.83,16.03-1.11,6.85-1.86,12.16-2.25,15.93-13.94,2.08-26.39,3.13-37.34,3.13s-20.38-1.32-29.47-3.96c-9.09-2.64-17.43-6.97-25.02-13-7.59-6.03-13.02-13.11-16.27-21.26-3.26-8.14-4.89-17.26-4.89-27.37,0-11.79,2.2-22.4,6.6-31.81,4.4-9.41,10.72-17.27,18.96-23.55,8.24-6.29,17.28-10.78,27.12-13.49,9.84-2.7,20-4.06,30.49-4.06,9.64,0,21.57,1.24,35.77,3.71l.2,8.21c.13,3.58.32,7.53.59,11.83l.68,11.14c-7.62-1.82-13.8-3.06-18.52-3.71-4.73-.65-9.11-.98-13.15-.98-8.8,0-16.71,1.76-23.75,5.28s-12.58,8.63-16.62,15.34c-4.04,6.71-6.06,14.14-6.06,22.28,0,7.43,1.69,13.8,5.08,19.11,3.39,5.31,7.97,9.42,13.73,12.31,5.77,2.9,12.88,4.35,21.36,4.35,4.63,0,9.66-.37,15.1-1.12,5.44-.75,12.27-2.2,20.48-4.35Z"/>
      <path class="cls-1" d="M329.37,226c3.24-31.67,5.18-66.52,5.83-104.58l-41.6,1.08.49-10.85c.26-5.8.45-12.15.59-19.06,18.5.13,40.06.2,64.68.2l24.13-.1h23.45l12.7-.1-.59,9.57c-.26,5.13-.44,9.38-.54,12.73-.1,3.36-.15,5.89-.15,7.6-13.93-.72-25.42-1.08-34.47-1.08h-6.84c-.98,11.51-1.74,22.14-2.26,31.9-.72,13.98-1.28,27.56-1.67,40.73-.39,13.17-.59,23.82-.59,31.95-10.68-.13-17.58-.2-20.71-.2-2.8,0-10.29.07-22.46.2Z"/>
      <path class="cls-1" d="M409.22,226l8.12-14.07,50.56-95.19,5.38-10.65c1.56-3.13,3.75-7.62,6.55-13.49,11.47.13,19.84.2,25.12.2,9.19,0,17.69-.06,25.51-.2l14.26,40.76,29.01,78.38,5.67,14.27c-11.29-.13-18.13-.2-20.55-.2-5.48,0-13.53.07-24.17.2-2.86-10.75-6.99-23.39-12.39-37.92h-49.2c-5.66,11.47-11.52,24.11-17.58,37.92-12.13-.13-19.57-.2-22.31-.2-4.96,0-12.95.07-23.97.2ZM484.89,159.64h30.36c-7.55-22.96-11.68-35.61-12.39-37.95-4.3,9.56-7.94,17.4-10.94,23.51l-7.03,14.44Z"/>
      <path class="cls-1" d="M590.03,226l1.94-25.02,2.52-48.87,1.07-34.6c.06-3.71.1-7.43.1-11.14,0-2.8-.03-7.39-.1-13.78,8.6.2,15.51.29,20.73.29s11.89-.15,20.63-.44c8.73-.29,16.13-.44,22.2-.44,8.73,0,15.2.55,19.41,1.66,4.2,1.11,8,2.85,11.39,5.23,3.39,2.38,6.19,5.16,8.41,8.36,2.22,3.19,3.88,6.83,4.99,10.9,1.11,4.07,1.66,8.23,1.66,12.46,0,8.73-2.12,16.71-6.35,23.95-4.24,7.23-10.2,12.64-17.88,16.22-7.69,3.58-16.32,5.37-25.9,5.37-3.52,0-7.59-.39-12.22-1.17-.52-3-1.5-7.46-2.93-13.39-1.43-5.93-2.61-10.33-3.52-13.19,2.87.59,5.86.88,8.99.88,6.58,0,11.48-1.58,14.71-4.74,3.23-3.16,4.84-7.02,4.84-11.58,0-2.21-.36-4.19-1.08-5.91-.72-1.73-1.86-3.14-3.42-4.25-1.56-1.11-3.29-1.82-5.18-2.15-1.89-.32-4.04-.49-6.45-.49s-4.79.07-7.33.2l-8.21.59c-.84,12.58-1.48,26.55-1.93,41.93-.84,28.02-1.26,44.83-1.26,50.43v12.71l-19.47-.2c-2.74,0-9.52.07-20.35.2Z"/>
      <path class="cls-1" d="M723.27,92.59c10.16.13,17.32.2,21.49.2,5.21,0,12.15-.06,20.81-.2l-2.91,41.54c-.58,7.82-1.02,15.15-1.31,21.99-.29,6.84-.44,11.57-.44,14.17,0,4.95.36,9.09,1.07,12.41.72,3.32,2.02,6.14,3.91,8.45,1.89,2.31,4.51,4.06,7.86,5.23,3.35,1.17,6.85,1.76,10.5,1.76,3.12,0,6.06-.43,8.79-1.28,2.15-.7,4.07-1.67,5.76-2.91,1.5-1.16,2.8-2.52,3.91-4.07,1.37-1.86,2.57-4.19,3.61-6.98,1.04-2.64,1.82-6.05,2.34-10.24.59-4.27,1.37-13.97,2.35-29.09.85-12.88,1.5-24.67,1.96-35.38.39-10.4.75-15.59,1.07-15.59h43.1l-4.75,69.39c-.06,1.3-.1,2.38-.1,3.22-.26,13.55-1.09,23.11-2.49,28.69-1.4,5.57-3.73,10.41-6.99,14.51s-8.02,7.8-14.27,11.09c-6.26,3.29-13.36,5.62-21.31,6.99-7.95,1.37-16,2.05-24.15,2.05-7.3,0-14.34-.52-21.12-1.56-6.26-1.04-11.9-2.56-16.92-4.54-5.02-1.99-9.39-4.32-13.1-6.99-3.39-2.48-6-5-7.82-7.57-1.83-2.57-3.26-5.65-4.3-9.24-1.17-4.04-1.76-8.37-1.76-13,0-1.56.06-3.92.2-7.09.13-3.16.43-7.7.88-13.63l1.28-15.64c.33-4.1.69-10.13,1.08-18.08l1.77-38.61Z"/>
    </g>
    <ellipse class="cls-1" cx="1321.57" cy="206.76" rx="21.39" ry="34.79" transform="translate(712.95 1397.93) rotate(-71.83)"/>
    <path class="cls-1" d="M283.73,211.73l-29.01-78.38-13.94-39.83L210.53,0l-16.89,5.28s-.02-.05-.03-.07c-8.84-.13-19.63,3.04-25.78,10.32-10.92,12.9-9.32,32.2,3.58,43.12,10.11,8.56,24.16,9.42,35.02,3.18l9.36,30.97c-.28,0-.55,0-.83,0-5.28,0-13.65-.06-25.12-.2-2.8,5.86-4.99,10.36-6.55,13.49l-5.38,10.65-50.56,95.19-8.12,14.07c11.02-.13,19.01-.2,23.97-.2,2.74,0,10.17.07,22.31.2,6.05-13.81,11.91-26.45,17.58-37.92h49.2c5.4,14.53,9.53,27.17,12.39,37.92,10.63-.13,18.69-.2,24.17-.2,2.41,0,9.26.07,20.55.2l-5.67-14.27ZM194.91,159.64l7.03-14.44c2.99-6.11,6.64-13.95,10.94-23.51.71,2.34,4.85,14.99,12.39,37.95h-30.36Z"/>
  </g>
  <g>
    <path class="cls-1" d="M920.76,127.97l2.05-30.86c-6.67-1.48-13.31-2.92-19.93-4.33-6.76,0-14.5-.07-23.22-.2,0,11.14-.34,25.46-1.03,42.96-.69,17.49-1.72,35.1-3.09,52.83-.72,9.71-1.9,22.25-3.53,37.63,15.77-.13,34.14-.2,55.12-.2,15.51,0,31.83.07,48.97.2l2.15-29.52c-8.8.46-21.77.68-38.91.68-3.39,0-10.69-.1-21.9-.29l.39-13.59,2.94-55.32Z"/>
    <g>
      <path class="cls-1" d="M984.69,111.65l-.49,10.85,38.88-1c-12.87-3.41-25.67-6.7-38.39-9.86,0,0,0,0,0,.01Z"/>
      <path class="cls-1" d="M1109.12,114.9c.1-3.36.28-7.6.54-12.73l.59-9.57-12.7.1h-23.45l-24.13.1c-19.04,0-36.24-.04-51.61-.12,40.78,9.35,77.87,18.87,110.64,27.91.02-1.52.06-3.4.13-5.68Z"/>
      <path class="cls-1" d="M1019.97,226c12.18-.13,19.66-.2,22.46-.2,3.13,0,10.03.07,20.71.2,0-8.13.2-18.78.59-31.95.39-13.17.95-26.75,1.67-40.73.34-6.25.77-12.86,1.29-19.83-13.71-3.91-27.35-7.67-40.91-11.29-.66,37.75-2.6,72.34-5.81,103.79Z"/>
      <g>
        <path class="cls-1" d="M1193.46,121.68c.59,1.92,3.48,10.8,8.67,26.62,18.22,5.86,33.07,10.92,44.2,14.83l-11.02-29.78-14.26-40.76c-7.82.13-16.32.2-25.51.2-5.28,0-13.65-.06-25.12-.2-2.8,5.86-4.99,10.36-6.55,13.49l-5.38,10.65-8.28,15.6c12.02,3.54,23.24,6.95,33.61,10.18,2.73-5.67,5.94-12.61,9.63-20.83Z"/>
        <path class="cls-1" d="M1259.01,197.39c-40.62-15.5-80.98-29.56-120.88-42.3l-30.19,56.84-8.12,14.07c11.02-.13,19.01-.2,23.97-.2,2.74,0,10.17.07,22.31.2,6.05-13.81,11.91-26.45,17.58-37.92h49.2c5.4,14.53,9.53,27.17,12.39,37.92,10.63-.13,18.69-.2,24.17-.2,2.41,0,9.26.07,20.55.2l-5.67-14.27-5.31-14.34Z"/>
      </g>
    </g>
  </g>
</svg>